<svg width="100" height="100" viewBox="0 0 100 100" fill="none" xmlns="http://www.w3.org/2000/svg">
<g clip-path="url(#clip0_1_2)">
<rect width="100" height="100" rx="20" fill="#CF0000"/>
<path d="M50.2102 23.5H49.8102C48.8102 26.3 47.6102 29.6333 46.2102 33.5C44.8768 37.3667 43.4768 41.3667 42.0102 45.5C40.6102 49.5667 39.2768 53.3667 38.0102 56.9L37.5102 58.4C37.1102 59.6 36.6102 61.1 36.0102 62.9C35.4102 64.7 34.7768 66.6 34.1102 68.6C33.4435 70.5333 32.8102 72.3667 32.2102 74.1C31.6102 75.7667 31.1435 77.1333 30.8102 78.2C30.3435 78.4 29.8435 78.5333 29.3102 78.6C28.8435 78.7333 28.2435 78.8 27.5102 78.8C26.4435 78.8 25.4768 78.5333 24.6102 78C23.8102 77.4 23.4102 76.4667 23.4102 75.2C23.4102 74.6 23.5102 74 23.7102 73.4C23.9102 72.7333 24.1435 72.0333 24.4102 71.3C25.2102 69.0333 26.1768 66.2667 27.3102 63C28.5102 59.7333 29.8102 56.1667 31.2102 52.3C32.6102 48.4333 34.0768 44.4667 35.6102 40.4C37.1435 36.3333 38.6435 32.3667 40.1102 28.5C41.5768 24.6333 42.9435 21.1 44.2102 17.9C44.7435 17.6333 45.5435 17.3667 46.6102 17.1C47.6768 16.8333 48.7768 16.7 49.9102 16.7C51.2435 16.7 52.5102 16.9 53.7102 17.3C54.9768 17.7 55.7768 18.3667 56.1102 19.3C57.7102 23.1667 59.4102 27.5667 61.2102 32.5C63.0768 37.3667 64.9435 42.4667 66.8102 47.8C68.6768 53.0667 70.4435 58.2 72.1102 63.2C73.8435 68.2 75.3768 72.7333 76.7102 76.8C76.2435 77.4 75.6102 77.8667 74.8102 78.2C74.0768 78.6 73.2435 78.8 72.3102 78.8C71.0435 78.8 70.0768 78.5333 69.4102 78C68.7435 77.4 68.1768 76.4333 67.7102 75.1L62.2102 58.8L61.4102 56C60.0768 51.9333 58.6768 47.8333 57.2102 43.7C55.8102 39.5667 54.4768 35.7333 53.2102 32.2C52.0102 28.6667 51.0102 25.7667 50.2102 23.5ZM33.6102 61.8L36.2102 55.1H64.1102L65.7102 61.8H33.6102Z" fill="#EEEEEE"/>
</g>
<defs>
<clipPath id="clip0_1_2">
<rect width="100" height="100" fill="white"/>
</clipPath>
</defs>
</svg>
